<?xml version="1.0" encoding="UTF-8"?>
<svg id="Layer_1" xmlns="http://www.w3.org/2000/svg" version="1.1" viewBox="0 0 993.27 774.55">
  <!-- Generator: Adobe Illustrator 29.4.0, SVG Export Plug-In . SVG Version: 2.1.0 Build 152)  -->
  <defs>
    <style>
      .st0 {
        fill: #1f222b;
      }
    </style>
  </defs>
  <path class="st0" d="M586.59,375c-49.22,8.13-93.91,28.44-135.7,54.83-4.58,2.89-10.74,8.3-15.31,10.31-8.57,3.77-22.5,6.38-32.04,9.39-11.24,3.55-22.56,7.11-33.66,11.04-44.63,15.76-86.89,36.92-128.67,58.88l-1.06-.55c-6.06-9.04-12.91-17.54-20.17-25.63-20-22.27-43.22-39.18-68.03-55.71-41.65-27.74-87.8-43.78-135.8-57.18-2.02-1.72-2.78-4.21-1.13-6.45,5.18-4.9,11.86-8.68,17.15-13.37,29.34-26.01,49.71-70.66,62.29-107.24,2.01-5.83,10.19-28.65,9.96-33.15-.32-6.49-4.24-18.27-5.58-25.49-9.77-52.87-8.81-110.71-.64-163.82,1.04-6.76,1.56-20.1,11.91-15.88,6.88,2.81,23.07,18.47,29.18,24.24,30.18,28.45,58.95,58.55,88.01,88.06,5.32,5.4,10.72,10.76,16.22,15.99,6.07-1.57,11.98-4.43,18.14-6.19,35.36-10.13,71.58-6.06,105.59,6.71,6.09-5.19,11.92-11.26,17.62-17.05,29.06-29.5,57.83-59.6,88.01-88.06,6.11-5.76,22.31-21.43,29.18-24.24,10.35-4.22,10.87,9.11,11.91,15.88,7.85,51.04,9.04,106.87.45,157.82-1.17,6.93-6.85,27.11-6.23,32.19.64,5.29,4.5,15.43,6.26,21,13.76,43.44,31.07,78.66,58.03,115.31,4.19,5.7,9.67,11.45,13.54,16.99.32.46.76.54.54,1.37Z"/>
  <g>
    <path class="st0" d="M371.8,637.73l27.99-3.34c78.97-9.72,154.87-42.19,219.9-87.01,14.81-10.21,39.67-27.95,49.45-42.67,2.24-3.37,1.13-6.87-3.09-6.41-3.46.38-11.61,4.84-15.55,6.31-62.05,23.05-128.69,28.92-194.48,23.03-13.82-1.24-26.98-3.56-40.07-8.18-.92-1,2.83-2.51,3.45-2.82,37.36-18.69,77.31-25.36,118.86-20.54,4.68.54,11.72,2.6,15.96,2.61s5.79-3.1,3.91-6.67c-3.54-6.71-21.9-14.88-29.14-18.28-28.64-13.48-59.34-23.89-91.24-25.7.15-.92,1.06-.98,1.75-1.24,3.6-1.37,8.95-2.48,12.85-3.51,108.03-28.56,221.12-25.58,328.3,5.57,51.25,14.9,108.65,33.26,155.93,57.76,9.01,4.67,30.59,15.71,36.8,22.62,9.74,10.83,11.55,50.36,10.07,64.6-7.34,70.44-60.44,101.64-118.64,128.29-47.66,21.82-106.1,29.75-158.1,35.97-56.12,6.71-111.99,4.51-167.7-4.41-24.64-26.45-50.38-51.78-80.37-72.26-26.49-18.09-56.07-34.32-86.85-43.71Z"/>
    <path class="st0" d="M541.88,488.92l-25.87-2.2c-33.41-.56-79.9,9.82-108.07,28.26-3.39,2.22-4.57,5.56-.55,7.85,20.03,11.4,55.67,13.37,78.59,14.09,31.64.99,64.69-.58,95.8-6.19,23.76-4.29,47.01-11.03,69.94-18.37.89.54-.12,1.22-.55,1.63-5.52,5.37-13.67,11.34-19.93,16.04-75.48,56.66-171.68,95.89-266.78,100.63-5.12.26-12.16-.76-16.89,0-3.58.58-4.14,4.3-1.55,6.39,36.74,9.65,70.41,25.48,102.05,46.22,29.18,19.13,55.02,42.71,78.55,68.35-44.35-7.1-88.3-16.59-131.38-29.16-68.7-20.04-137.59-49.81-210.73-47.17-31.7,1.14-65.96,6.63-94.68,20.35-4.06,1.94-17.71,10.26-20.89,10.25-1.6,0-1.95-.88-1.91-2.51.05-1.79,8.2-17.51,9.74-20.25,8.85-15.77,22.94-32.62,34.45-46.77,27.41-33.69,56.18-61.76,92.71-85.54,50.76-33.04,112.55-63.68,169.76-83.72,8.72-3.06,37.96-13.8,45.28-13.65,39.11.8,76.23,12.29,111.11,29,3.92,1.88,8.41,3.87,11.8,6.46Z"/>
    <path class="st0" d="M172.82,461.67c.92-.18,1.44.46,2.12.88,15.29,9.24,35.41,30.2,46.93,44.11,1.55,1.87,12.03,15.34,12.03,16.36l-47.18,30.22c-10.87-28.79-17.34-60.61-13.9-91.56Z"/>
    <path class="st0" d="M458.48,433.87l18.17-10.99c31.5-17.95,64.59-30.52,100.03-38.44,4.67-1.04,9.97-1.39,14.4-2.5,5.1-1.28,7.26-3.32,4.26-8.32-4.59-7.65-13.88-17.25-19.54-25.15-11.43-15.94-22.57-32.88-31.27-50.49-1.58-3.2-5.44-10.46-6.21-13.44-.15-.6-.47-1.08,0-1.68.53-.69,14.42-2.89,16.48-3.16,87.65-11.5,189.78,24.77,260.41,75.24,53.93,38.54,95.52,92.27,130.65,147.89-9.74-4.55-19.23-9.61-29.06-14-38.03-16.99-77.92-29.74-117.7-42.02-84.11-25.96-173.94-37.2-261.81-27.1-26.55,3.05-52.8,8.12-78.78,14.16Z"/>
  </g>
</svg>